<svg id="Capa_1" enable-background="new 0 0 512 512" height="512" viewBox="0 0 512 512" width="512" xmlns="http://www.w3.org/2000/svg"><g><circle cx="417" cy="45" r="45"/><circle cx="95" cy="45" r="45"/><circle cx="95" cy="367" r="45"/><circle cx="417" cy="367" r="45"/><path d="m471.047 418.918c-13.656 14.211-32.829 23.082-54.047 23.082s-40.391-8.871-54.047-23.082c-8.716 6.052-16.369 13.528-22.634 22.082h-69.319v-90h45c8.284 0 15-6.716 15-15v-80c0-8.284-6.716-15-15-15h-45v-90h54.079c-2.004 7.669-3.079 15.711-3.079 24 0 8.284 6.716 15 15 15h160c8.284 0 15-6.716 15-15 0-32.318-16.225-60.913-40.953-78.082-13.656 14.211-32.829 23.082-54.047 23.082s-40.391-8.871-54.047-23.082c-9.39 6.519-17.549 14.689-24.064 24.082h-165.778c-6.515-9.392-14.674-17.562-24.064-24.082-13.656 14.211-32.829 23.082-54.047 23.082s-40.391-8.871-54.047-23.082c-24.728 17.169-40.953 45.764-40.953 78.082 0 8.284 6.716 15 15 15h160c8.284 0 15-6.716 15-15 0-8.289-1.074-16.331-3.079-24h54.079v68.787l-4.394-4.393c-2.813-2.814-6.628-4.394-10.606-4.394h-40c-8.284 0-15 6.716-15 15v110c0 8.284 6.716 15 15 15h55v90h-69.319c-6.265-8.553-13.918-16.03-22.634-22.082-13.656 14.211-32.829 23.082-54.047 23.082s-40.391-8.871-54.047-23.082c-24.728 17.169-40.953 45.764-40.953 78.082 0 8.284 6.716 15 15 15h160c8.284 0 15-6.716 15-15 0-9.012-1.265-17.734-3.621-26h139.241c-2.356 8.266-3.621 16.988-3.621 26 0 8.284 6.716 15 15 15h160c8.284 0 15-6.716 15-15 .001-32.318-16.224-60.913-40.952-78.082z"/></g></svg>